<svg width="1024" height="1024" viewBox="0 0 1024 1024" fill="none" xmlns="http://www.w3.org/2000/svg">
<path fill-rule="evenodd" clip-rule="evenodd" d="M512 1024C794.77 1024 1024 794.77 1024 512C1024 229.23 794.77 0 512 0C229.23 0 0 229.23 0 512C0 794.77 229.23 1024 512 1024ZM219.696 628.427L402.429 267.539C425.085 222.793 489.457 224.171 510.177 269.847L594.306 455.297C594.653 456.063 595.734 456.08 596.106 455.326L682.282 280.603C694.388 256.058 723.376 245.007 748.748 255.264C775.581 266.112 788.49 296.698 777.545 323.49L631.934 679.906C611.52 729.874 541.337 731.452 518.698 682.451L429.58 489.557C428.505 487.231 425.195 487.247 424.142 489.583L336.445 684.247C324.283 711.245 295.349 726.545 266.189 721.399C223.426 713.853 200.08 667.168 219.696 628.427Z" fill="#374E60"/>
<path d="M219.696 628.427L402.209 267.973C424.954 223.052 489.577 224.436 510.379 270.29L594.302 455.29C594.651 456.059 595.737 456.076 596.11 455.319L682.282 280.603C694.388 256.058 723.376 245.008 748.748 255.264C775.581 266.112 788.491 296.698 777.545 323.49L632.144 679.392C611.65 729.556 541.193 731.14 518.465 681.947L429.591 489.58C428.512 487.246 425.188 487.261 424.132 489.606L336.445 684.247C324.283 711.245 295.349 726.545 266.189 721.399C223.427 713.853 200.081 667.168 219.696 628.427Z" fill="white"/>
</svg>
